# xmcd CD database file
#
# Track frame offsets:
#	150
#	11687
#	23932
#	35570
#	49107
#	62545
#	74772
#	87347
#	98904
#	110187
#	123557
#	140807
#	157217
#	169765
#	186987
#	204270
#
# Disc length: 2908 seconds
#
# Revision: 3
# Processed by: cddbd v1.5.1PL0 Copyright (c) Steve Scherf et al.
# Submitted via: CDex 1.51
#
DISCID=f20b5a10
DTITLE=Ray Price - 16 Biggest Hits
DYEAR=1999
DGENRE=Country
TTITLE0=Crazy Arms
TTITLE1=I've Got A New Heartache
TTITLE2=My Shoes Keep Walking Back To You
TTITLE3=City Lights
TTITLE4=Heartaches By The Number
TTITLE5=The Same Old Me
TTITLE6=One More Time
TTITLE7=Make The World Go Away
TTITLE8=Burning Memories
TTITLE9=The Other Woman
TTITLE10=For The Good Times
TTITLE11=I Won't Mention It Again
TTITLE12=I'd Rather Be Sorry
TTITLE13=She's Got to Be A Saint
TTITLE14=You're The Best Thing That Ever Happened To Me
TTITLE15=Danny Boy
EXTD=YEAR: 1999
EXTT0=
EXTT1=
EXTT2=
EXTT3=
EXTT4=
EXTT5=
EXTT6=
EXTT7=
EXTT8=
EXTT9=
EXTT10=
EXTT11=
EXTT12=
EXTT13=
EXTT14=
EXTT15=
PLAYORDER=
